<?xml version="1.0" encoding="UTF-8"?>
<svg width="13px" height="12px" viewBox="0 0 13 12" version="1.1" xmlns="http://www.w3.org/2000/svg" xmlns:xlink="http://www.w3.org/1999/xlink">
    <!-- Generator: Sketch 42 (36781) - http://www.bohemiancoding.com/sketch -->
    <title>instagram</title>
    <desc>Created with Sketch.</desc>
    <defs></defs>
    <g id="Symbols" stroke="none" stroke-width="1" fill="none" fill-rule="evenodd" fill-opacity="0.3">
        <g id="menu-mobile" transform="translate(-26.000000, -489.000000)" fill="#FFFFFF">
            <g id="Group-2" transform="translate(25.000000, 139.000000)">
                <g id="Social-nets-" transform="translate(1.000000, 349.000000)">
                    <g id="instagram" transform="translate(0.000000, 1.000000)">
                        <g id="Group-11" transform="translate(0.629967, 0.346035)">
                            <path d="M5.84836332,4.82173806 C5.15918292,4.82173806 4.60067003,5.3804778 4.60067003,6.06943135 C4.60067003,6.75861176 5.15918292,7.31712465 5.84836332,7.31712465 C6.53731688,7.31712465 7.09605662,6.75861176 7.09605662,6.06943135 C7.09605662,5.3804778 6.53731688,4.82173806 5.84836332,4.82173806" id="Fill-7"></path>
                            <path d="M5.84836332,0.514122507 C7.35677587,0.514122507 7.54624114,0.52055497 8.13861249,0.54745436 C8.72981431,0.574646135 9.13359755,0.668501616 9.48709062,0.805922414 C9.85227908,0.947728982 10.1622068,1.13777902 10.4712574,1.44653724 C10.7800157,1.75558784 10.9700657,2.0655156 11.1118723,2.43070406 C11.2492931,2.78419713 11.3431485,3.18798037 11.3700479,3.77918219 C11.3972397,4.37155354 11.4036722,4.56072643 11.4036722,6.06943135 C11.4036722,7.57842867 11.3972397,7.76760155 11.3700479,8.35997291 C11.3431485,8.95117472 11.2492931,9.35495796 11.1118723,9.70845103 C10.9700657,10.0736395 10.7800157,10.3835673 10.4712574,10.6926179 C10.1622068,11.0013761 9.85227908,11.1914261 9.48709062,11.3332327 C9.13359755,11.4706535 8.72981431,11.564509 8.13861249,11.5917007 C7.54624114,11.6186001 7.35677587,11.6250326 5.84836332,11.6250326 C4.3396584,11.6250326 4.15019313,11.6186001 3.55782177,11.5917007 C2.96661996,11.564509 2.56283672,11.4706535 2.20934364,11.3332327 C1.84415518,11.1914261 1.53422743,11.0013761 1.22517682,10.6926179 C0.916418607,10.3835673 0.726368567,10.0736395 0.584561999,9.70845103 C0.447141201,9.35495796 0.35328572,8.95117472 0.32638633,8.35997291 C0.299194555,7.76760155 0.293054477,7.57842867 0.293054477,6.06943135 C0.293054477,4.56072643 0.299194555,4.37155354 0.32638633,3.77918219 C0.35328572,3.18798037 0.447141201,2.78419713 0.584561999,2.43070406 C0.726368567,2.0655156 0.916418607,1.75558784 1.22517682,1.44653724 C1.53422743,1.13777902 1.84415518,0.947728982 2.20934364,0.805922414 C2.56283672,0.668501616 2.96661996,0.574646135 3.55782177,0.54745436 C4.15019313,0.52055497 4.3396584,0.514122507 5.84836332,0.514122507 Z M5.84836332,3.38315457 C4.36464312,3.38315457 3.16208654,4.58600962 3.16208654,6.06943135 C3.16208654,7.55315156 4.36464312,8.75570814 5.84836332,8.75570814 C7.33178506,8.75570814 8.53464011,7.55315156 8.53464011,6.06943135 C8.53464011,4.58600962 7.33178506,3.38315457 5.84836332,3.38315457 Z M9.58757858,3.10418292 C9.58757858,2.67644981 9.24128639,2.33015762 8.81355328,2.33015762 C8.38649323,2.33015762 8.03952798,2.67644981 8.03952798,3.10418292 C8.03952798,3.5315795 8.38649323,3.87820822 8.81355328,3.87820822 C9.24128639,3.87820822 9.58757858,3.5315795 9.58757858,3.10418292 Z" id="Combined-Shape"></path>
                        </g>
                    </g>
                </g>
            </g>
        </g>
    </g>
</svg>