<?xml version="1.0" encoding="UTF-8"?>
<svg width="34px" height="42px" viewBox="0 0 34 42" version="1.1" xmlns="http://www.w3.org/2000/svg" xmlns:xlink="http://www.w3.org/1999/xlink">
    <!-- Generator: Sketch 46 (44423) - http://www.bohemiancoding.com/sketch -->
    <title>logo_uppa</title>
    <desc>Created with Sketch.</desc>
    <defs></defs>
    <g id="Page-1" stroke="none" stroke-width="1" fill="none" fill-rule="evenodd">
        <g id="logo_uppa" fill-rule="nonzero" fill="#000000">
            <path d="M31.689,31.203 C32.371,30.517 31.714,31.057 32.402,30.65 C32.613,30.527 32.931,30.142 33.056,29.949 C33.124,29.842 33.232,29.669 33.275,29.56 C33.744,28.4 33.429,27.691 33.115,26.828 C32.873,26.159 32.67,26.16 32.168,25.715 C31.059,24.731 28.916,24.772 27.805,25.686 C27.34,26.067 26.764,26.501 26.973,27.459 C27.284,27.557 27.176,27.566 27.545,27.615 C27.463,26.838 27.434,26.404 27.934,25.906 C28.297,25.545 28.807,25.318 29.317,25.308 C30.184,25.29 30.184,25.48 30.794,25.906 C32.181,26.869 32.784,30.111 30.278,31.247 L28.817,31.832 C28.112,31.723 28.225,31.445 27.895,30.879 L26.618,28.524 L24.911,24.707 C24.735,24.324 24.595,23.815 24.432,23.374 C23.979,22.142 24.432,21.825 23.53,21.871 C23.171,21.89 23.362,21.96 22.993,21.908 C22.85,22.026 22.999,21.949 22.774,22.009 L22.088,22.137 C21.567,22.251 19.367,22.036 18.711,22.238 L18.598,22.922 C19.405,22.932 19.551,22.924 20.17,23.203 C20.438,23.324 21.002,23.838 21.129,24.119 C21.129,24.383 20.186,26.284 20.012,26.599 C19.809,26.963 19.492,27.872 19.164,28.478 C18.943,28.883 18.869,28.71 18.859,29.23 C19.802,29.213 19.267,29.05 19.798,28.671 C19.89,28.158 21.368,25.642 21.884,25.05 C22.228,25.209 22.177,25.503 22.333,25.857 C22.444,26.109 22.665,26.31 22.806,26.638 C23.267,27.716 25.122,31.396 25.191,31.955 C23.916,32.263 20.513,32.101 18.976,31.993 C19.001,32.334 19.158,32.643 19.316,32.942 C19.461,33.213 19.648,33.36 19.83,33.602 C20.086,33.948 20.434,34.784 20.873,34.883 C21.375,33.746 21.373,33.598 22.562,32.944 C23.269,32.553 25.234,32.481 25.673,32.569 C26.005,33.094 26.251,33.643 26.601,34.274 C26.953,34.906 28.253,37.365 28.359,37.795 C28.689,39.117 28.228,39.324 28.004,39.692 C26.586,40.315 27.217,40.001 25.77,40.004 L25.805,40.869 L32.045,40.596 C32.512,40.592 32.557,40.589 32.836,40.325 C33.01,40.159 33.24,39.977 33.311,39.721 C32.961,39.739 29.59,39.971 29.323,39.91 C29.135,39.867 29.157,39.857 29.067,39.802 C29.294,39.535 30.821,38.733 31.598,38.083 C32.586,37.26 32.032,37.076 31.739,36.748 C31.536,36.521 31.602,36.473 31.425,36.241 C31.253,36.017 31.212,36.064 31.015,35.84 C30.788,35.582 30.869,35.639 30.703,35.324 L30.055,34.353 C29.518,33.648 29.629,33.617 29.418,33.361 L29.02,32.952 L28.866,32.458 C29.401,31.927 29.235,32.422 30.339,31.844 C30.629,31.691 31.154,31.74 31.689,31.203 Z" id="Shape"></path>
            <path d="M11.861,33.655 L12.767,33.199 C13.365,32.97 13.908,32.633 14.398,32.189 C14.887,31.746 15.301,31.251 15.637,30.709 C15.972,30.166 16.215,29.596 16.359,29 C16.629,27.898 16.541,26.873 16.107,25.844 C15.963,25.5 15.785,25.18 15.58,24.881 C15.373,24.582 15.154,24.299 14.926,24.032 C14.119,23.092 13.244,22.051 11.676,22.041 L1.76,21.98 L1.76,22.337 L1.777,22.346 C1.869,22.391 1.965,22.449 2.062,22.518 C2.162,22.586 2.258,22.663 2.349,22.747 C2.441,22.831 2.496,22.911 2.512,22.989 L2.804,23.281 C2.951,23.34 3.066,23.423 3.154,23.528 C3.209,23.594 3.254,23.673 3.287,23.759 C3.316,23.838 3.338,23.925 3.347,24.02 C3.371,24.219 3.383,24.457 3.383,24.731 C3.383,25.011 3.359,25.248 3.312,25.44 L3.353,27.975 L3.353,27.983 L3.422,29.696 C3.435,29.764 3.445,29.839 3.451,29.919 C3.467,30.087 3.478,30.251 3.486,30.411 C3.494,30.573 3.513,30.69 3.543,30.768 C3.527,30.797 3.517,30.831 3.51,30.87 C3.502,30.909 3.498,31.005 3.498,31.158 C3.498,31.311 3.502,31.54 3.51,31.846 L3.638,34.397 C3.681,34.602 3.705,34.754 3.705,34.852 L3.705,38.696 C3.705,38.809 3.631,38.994 3.59,39.098 C3.513,39.289 3.418,39.485 3.303,39.684 C3.187,39.883 3.06,40.059 2.924,40.211 C2.787,40.365 2.664,40.441 2.556,40.441 C2.465,40.441 2.404,40.463 2.373,40.509 C2.342,40.556 2.304,40.577 2.258,40.577 L2.221,40.615 L2.221,41.046 C2.597,41.041 5.484,40.968 7.25,40.96 C7.963,40.958 8.42,41.216 8.57,41.105 C8.57,40.953 8.623,40.22 8.535,40.22 L8.07,40.234 C7.842,40.172 7.183,40.248 7.023,40.08 C6.861,39.912 6.867,39.883 6.767,39.684 C6.668,39.485 6.592,39.278 6.539,39.065 C6.484,38.85 6.273,38.536 6.281,38.367 L6.32,37.436 L6.197,36.19 L6.326,35.995 L6.32,33.497 C6.687,33.527 6.978,33.543 7.191,33.543 L7.765,33.543 C7.92,33.543 8.053,33.559 8.168,33.589 C8.281,33.619 8.424,33.666 8.592,33.727 L8.844,33.659 C10.004,33.658 11.096,34.039 11.861,33.655 Z M9.625,33.244 C9.533,33.244 9.422,33.218 9.291,33.164 C9.162,33.111 9.013,33.084 8.844,33.084 L8.5,32.832 C8.101,32.712 7.685,32.509 7.33,32.293 C7.115,32.162 6.912,32.01 6.722,31.834 C6.683,31.798 6.644,31.762 6.609,31.725 C6.453,31.04 6.435,30.387 6.758,29.9 C6.992,29.545 7.373,29.116 7.683,28.994 C7.959,28.887 8.527,28.58 8.83,28.748 C9.221,28.963 9.476,29.467 9.547,29.916 L9.656,30.624 L10.012,30.428 C10.082,29.837 10.086,29.58 9.869,29.163 C9.771,28.973 9.525,28.523 9.396,28.392 C9.31,28.306 9.07,28.177 8.988,28.107 C8.275,27.494 7.265,27.964 6.176,29.046 C6.181,29.025 6.187,29.004 6.193,28.988 C6.217,28.934 6.228,28.884 6.228,28.838 L6.34,28.827 L6.34,28.585 L6.09,28.585 C6.137,28.433 6.164,28.176 6.172,27.817 C6.179,27.457 6.174,27.086 6.16,26.704 C6.144,26.322 6.125,25.981 6.101,25.683 C6.08,25.384 6.068,25.212 6.068,25.166 C6.068,24.585 6.224,24.122 6.539,23.779 C6.851,23.434 7.394,23.147 8.18,23.147 C8.787,23.145 10.023,22.641 10.711,22.957 C11.262,23.21 12.008,23.495 12.451,23.886 C12.894,24.277 12.844,24.929 13.15,25.417 C13.455,25.907 13.549,26.841 13.64,27.3 L13.769,28.357 L13.617,29.252 C13.562,29.574 13.453,29.902 13.308,30.239 C13.162,30.575 12.978,30.912 12.758,31.248 C12.535,31.585 12.263,31.898 11.943,32.189 C11.912,32.22 11.797,32.288 11.597,32.396 C11.398,32.501 11.174,32.621 10.922,32.75 C10.668,32.88 10.416,32.995 10.164,33.095 C9.912,33.195 9.732,33.244 9.625,33.244 Z" id="Shape"></path>
            <path d="M18.943,29.419 C18.533,29.502 18.588,29.58 18.445,29.926 L17.865,31.139 C17.742,31.428 17.724,31.569 17.441,31.748 L15.117,36.303 C14.814,36.84 14.426,37.621 14.088,37.987 C13.605,38.507 14.097,38.128 13.49,38.751 C13.154,39.095 13.357,39.128 12.836,39.454 C11.922,40.028 12.119,40.074 10.789,40.129 L10.808,40.917 C11.748,40.933 12.877,40.714 13.998,40.706 C14.574,40.702 14.992,40.753 15.535,40.77 C15.963,40.784 16.818,40.942 17.015,40.92 L17.072,40.106 C16.308,40.149 15.056,40.762 15.293,38.444 C15.334,38.04 16.154,36.1 16.353,35.824 L17.978,32.36 C17.941,31.975 18.281,31.492 18.447,31.34 C18.717,30.229 19.373,30.217 18.943,29.419 Z" id="Shape"></path>
            <path d="M33.354,4.973 C33.208,4.629 33.032,4.307 32.827,4.009 C32.619,3.711 32.4,3.428 32.172,3.16 C29.35,-0.133 23.108,1.134 19.006,1.108 L19.006,1.465 L19.024,1.474 C19.116,1.52 19.212,1.576 19.311,1.646 C19.409,1.715 19.719,1.791 19.811,1.875 C19.903,1.959 20.434,1.845 20.45,1.921 C20.645,2.115 20.495,2.51 20.614,2.656 C20.671,2.723 20.501,2.801 20.534,2.888 C20.563,2.967 20.585,3.054 20.595,3.149 C20.618,3.348 20.63,3.584 20.63,3.86 C20.63,4.14 20.607,4.375 20.56,4.569 L20.6,7.104 L20.6,7.112 L20.668,8.824 C20.682,8.893 20.691,8.967 20.697,9.046 C20.713,9.215 20.724,9.379 20.732,9.539 C20.74,9.7 20.759,9.819 20.789,9.895 C20.773,9.926 20.764,9.96 20.756,9.998 C20.748,10.037 20.744,10.132 20.744,10.285 C20.744,10.439 20.748,10.668 20.756,10.974 L20.756,10.985 C20.697,10.974 20.635,10.962 20.572,10.949 C20.281,10.889 19.558,10.616 19.273,10.532 C19.105,10.484 18.841,10.465 18.675,10.407 C18.179,10.235 17.708,10.02 17.239,9.811 C17.151,9.753 17.061,9.696 16.966,9.636 L16.876,9.579 L16.923,6.016 L17.048,5.04 C17.068,4.886 17.071,4.707 17.12,4.51 C17.167,4.313 17.237,4.121 17.327,3.938 C17.415,3.754 17.532,3.584 17.677,3.429 C17.804,3.292 18.402,3.195 18.685,3.134 L18.685,2.688 L18.639,2.73 L18.494,2.581 C18.494,2.581 18.49,2.596 18.482,2.623 C18.476,2.652 18.459,2.68 18.431,2.708 C18.363,2.723 18.294,2.73 18.224,2.73 L18.02,2.73 C17.922,2.73 17.827,2.705 17.731,2.656 C17.633,2.606 17.538,2.581 17.442,2.581 C17.358,2.581 17.335,2.599 17.37,2.634 C17.402,2.67 17.4,2.701 17.357,2.73 L13.814,2.678 L13.814,3.076 L13.849,3.112 C13.89,3.112 13.924,3.132 13.951,3.174 C13.978,3.217 14.035,3.239 14.117,3.239 C14.213,3.239 15.191,3.309 15.314,3.45 C15.437,3.591 15.553,3.754 15.654,3.938 C15.758,4.121 15.844,4.303 15.912,4.479 C15.951,4.574 16.015,4.746 16.015,4.852 L16.015,9.041 C15.672,8.817 15.412,8.645 14.869,8.393 C14.732,8.328 14.592,8.257 14.445,8.162 C14.217,8.012 14.162,8.072 14.092,7.936 C13.763,7.847 13.537,7.705 13.226,7.569 C12.971,7.455 12.693,7.358 12.404,7.258 C11.914,7.091 11.199,6.899 10.619,6.91 C9.525,6.869 8.039,7.104 7.597,8.561 C7.549,8.723 7.504,9.046 7.49,9.219 C7.299,11.619 7.945,12.515 8.205,12.901 C8.306,12.919 8.521,13.068 8.635,13.157 C8.824,13.302 8.836,13.295 9.056,13.399 C9.363,13.544 9.683,13.658 9.998,13.736 C13.408,14.571 15.226,11.029 13.054,10.966 C13.099,11.192 13.252,11.433 13.263,11.752 C13.281,12.223 13.14,12.258 12.949,12.619 C10.793,16.673 3.162,7.752 11.935,8.082 C12.574,8.107 13.135,8.328 13.795,8.723 C13.994,8.842 14.404,9.171 14.574,9.272 L15.14,9.688 L15.256,9.586 L15.445,9.86 C15.521,9.892 15.596,9.923 15.67,9.953 L16.015,10.099 L16.015,10.951 L15.912,13.172 C15.908,13.262 15.998,13.324 15.959,13.513 C15.984,13.701 16.074,14.025 16.053,14.185 C15.965,14.85 16.045,15.563 15.631,16.153 C15.502,16.334 15.164,17.162 15.135,17.198 C13.367,19.38 11.689,19.741 9.785,19.563 C7.574,19.213 5.07,16.352 4.865,13.914 C4.853,13.76 4.842,13.607 4.834,13.458 C4.828,13.311 4.81,12.211 4.783,12.141 C4.797,12.113 4.806,12.08 4.814,12.045 C4.82,12.01 4.824,11.922 4.824,11.781 C4.824,11.639 4.82,11.427 4.814,11.145 L4.697,8.787 C4.658,8.598 4.638,8.457 4.638,8.367 L4.638,4.817 C4.638,4.711 4.703,4.541 4.742,4.444 C4.81,4.268 4.896,4.087 5,3.903 C5.103,3.719 5.217,3.557 5.34,3.416 C5.465,3.275 5.574,3.203 5.67,3.203 C5.754,3.203 5.808,3.182 5.836,3.14 C5.863,3.098 5.898,3.076 5.939,3.076 L5.972,3.041 L5.972,2.644 C5.635,2.649 3.037,2.715 1.449,2.723 C0.806,2.726 0.395,2.487 0.26,2.59 C0.26,2.731 0.213,3.407 0.293,3.407 L0.711,3.396 C0.916,3.452 1.508,3.381 1.652,3.537 C1.797,3.693 1.793,3.719 1.883,3.903 C1.971,4.087 2.041,4.278 2.088,4.476 C2.137,4.674 2.142,4.852 2.16,5.006 L2.285,5.981 L2.285,9.618 C2.42,14.155 2.097,16.883 4.969,18.789 C5.289,19.002 5.629,19.206 5.984,19.398 C6.342,19.59 6.726,19.754 7.138,19.89 C8.371,20.295 9.599,20.38 10.92,20.138 C11.637,20.008 12.445,19.928 13.097,19.62 C13.748,19.313 14.502,19.11 15.035,18.659 C15.568,18.21 15.691,17.391 15.969,16.84 L16.517,16.006 C16.867,15.474 16.695,14.768 16.591,13.994 L16.434,13.869 L16.819,13.748 L16.864,10.453 L17.262,10.619 L17.268,10.604 C17.608,10.742 17.952,10.885 18.319,11.045 L19.381,11.51 L19.785,11.549 L19.756,11.658 L20.108,11.789 L20.631,11.848 L20.801,11.901 L20.883,13.525 C20.926,13.731 20.947,13.882 20.947,13.981 L20.947,17.824 C20.947,17.938 20.875,18.122 20.834,18.227 C20.758,18.418 20.662,18.614 20.547,18.813 C20.432,19.012 20.307,19.188 20.168,19.34 C20.031,19.493 19.908,19.57 19.801,19.57 C19.709,19.57 19.649,19.593 19.617,19.639 C19.586,19.685 19.549,19.707 19.502,19.707 L19.465,19.745 L19.465,20.176 C19.842,20.17 22.729,20.098 24.494,20.09 C25.207,20.087 25.664,20.346 25.814,20.235 C25.814,20.082 25.867,19.349 25.779,19.349 L25.314,19.362 C25.085,19.301 24.427,19.377 24.267,19.209 C24.105,19.041 24.111,19.012 24.011,18.813 C23.911,18.614 23.835,18.407 23.781,18.194 C23.728,17.979 23.722,17.786 23.701,17.619 L23.564,16.564 L23.564,12.626 C23.931,12.657 24.222,12.672 24.435,12.672 L25.009,12.672 C25.161,12.672 25.296,12.688 25.411,12.718 C25.526,12.748 25.667,12.794 25.835,12.856 L26.087,12.787 C27.247,12.787 28.339,13.168 29.107,12.783 L30.011,12.328 C30.609,12.098 31.152,11.762 31.642,11.319 C32.13,10.874 32.544,10.381 32.88,9.838 C33.216,9.295 33.458,8.725 33.603,8.128 C33.875,7.026 33.787,6.002 33.354,4.973 Z M30.863,8.381 C30.808,8.703 30.699,9.032 30.552,9.367 C30.407,9.704 30.224,10.04 30.003,10.377 C29.78,10.713 29.509,11.028 29.187,11.319 C29.158,11.349 29.042,11.418 28.843,11.525 C27.892,12.037 27.361,11.983 26.79,11.984 C26.415,11.985 23.53,11.289 23.489,11.248 C23.333,11.092 23.604,10.565 23.497,10.377 C23.452,10.3 23.438,10.163 23.462,9.964 C23.485,9.766 23.505,9.582 23.519,9.413 C23.55,9.245 23.539,9.05 23.486,8.828 C23.431,8.607 23.406,8.449 23.406,8.358 C23.406,8.251 23.418,8.17 23.439,8.116 C23.462,8.063 23.474,8.014 23.474,7.968 L23.585,7.957 L23.585,7.715 L23.335,7.715 C23.382,7.563 23.409,7.306 23.417,6.947 C23.423,6.587 23.421,6.216 23.405,5.834 C23.389,5.451 23.37,5.111 23.346,4.813 C23.325,4.514 23.313,4.342 23.313,4.296 C23.313,3.715 23.186,2.969 23.499,2.624 C23.813,2.281 24.64,1.85 25.425,1.849 C26.032,1.848 26.986,1.981 27.673,2.296 C28.224,2.548 29.111,2.979 29.554,3.369 C29.997,3.76 29.984,4.518 30.288,5.007 C30.595,5.497 30.794,5.971 30.886,6.43 L31.015,7.486 L30.863,8.381 Z" id="Shape"></path>
        </g>
    </g>
</svg>