<?xml version="1.0" encoding="UTF-8"?>
<svg width="86px" height="15px" viewBox="0 0 86 15" version="1.1" xmlns="http://www.w3.org/2000/svg" xmlns:xlink="http://www.w3.org/1999/xlink">
    <!-- Generator: Sketch 46 (44423) - http://www.bohemiancoding.com/sketch -->
    <title>pavel</title>
    <desc>Created with Sketch.</desc>
    <defs></defs>
    <g id="Symbols" stroke="none" stroke-width="1" fill="none" fill-rule="evenodd" opacity="0.3">
        <g id="menu" transform="translate(-40.000000, -665.000000)" fill="#FEFEFE">
            <g id="Group-5">
                <g transform="translate(40.000000, 665.000000)">
                    <g id="pavel">
                        <path d="M21.6870653,8.50636364 C21.7443381,8.17636364 22.1766108,7.63636364 22.3729744,7.39090909 L22.4261562,7.32409091 C22.5379744,7.17545455 22.6716108,7.02681818 22.8229744,6.88090909 C23.0220653,6.68590909 23.2566108,6.49227273 23.5607017,6.27272727 C23.6316108,6.21818182 23.7038835,6.16363636 23.7775199,6.10909091 C23.8566108,6.04909091 23.9370653,5.98909091 24.013429,5.93045455 C24.3897926,5.64136364 24.7593381,5.32772727 25.1179744,5.025 C25.288429,4.87909091 25.4588835,4.73454545 25.6320653,4.59136364 C25.8720653,4.38818182 26.0779744,4.23545455 26.2811562,4.10590909 C26.6957017,3.83454545 27.1102472,3.55363636 27.5097926,3.28090909 C27.6229744,3.20590909 27.7361562,3.13090909 27.8493381,3.05454545 C28.0088835,2.94681818 28.168429,2.83909091 28.3320653,2.73409091 C29.4952472,1.97727273 30.433429,1.485 31.3729744,1.13590909 C31.6866108,1.02136364 31.9675199,0.931363636 32.2238835,0.864545455 L32.9397926,0.722727273 C32.9370653,0.762272727 32.9207017,0.807272727 32.893429,0.860454545 C32.848429,0.947727273 32.7857017,1.02 32.713429,1.09772727 C32.5388835,1.28454545 32.3261562,1.44 32.1202472,1.59 C32.0302472,1.65545455 31.9416108,1.71954545 31.8557017,1.78636364 C31.5516108,2.025 31.2611562,2.26636364 30.9938835,2.50909091 C30.6229744,2.85 30.1647926,3.105 29.7216108,3.35318182 C29.5825199,3.43090909 29.4420653,3.50863636 29.3070653,3.58909091 C29.1747926,3.66818182 29.0411562,3.74590909 28.9075199,3.82363636 C28.7452472,3.92045455 28.5829744,4.01590909 28.4220653,4.11 C27.508429,4.65545455 26.428429,5.30590909 25.3497926,6.00409091 C24.6638835,6.44454545 24.0979744,6.82090909 23.5675199,7.18636364 C23.2920653,7.37181818 23.0029744,7.575 22.6838835,7.80409091 C22.5407017,7.90636364 22.3961562,8.01 22.2557017,8.11636364 C22.2093381,8.15045455 22.1275199,8.20363636 22.0375199,8.265 C21.9147926,8.34681818 21.7825199,8.43545455 21.6870653,8.50636364 M50.4843381,12.8986364 C50.1352472,12.285 50.0657017,11.52 50.2866108,10.74 C50.563429,10.6077273 50.8920653,10.545 51.3161562,10.545 C51.6693381,10.545 52.0511562,10.59 52.4193381,10.6322727 C52.678429,10.6622727 52.9443381,10.6936364 53.203429,10.7086364 C52.6716108,11.4327273 52.3129744,12.3545455 51.9652472,13.2477273 C51.883429,13.4577273 51.8002472,13.6690909 51.7157017,13.8763636 C51.1975199,13.7304545 50.7611562,13.3840909 50.4843381,12.8986364 M85.6688835,10.665 C85.4943381,10.3186364 85.0061562,10.2013636 84.7143381,10.1304545 L84.6475199,10.1140909 C82.468429,9.78681818 79.9416108,9.62863636 76.9211562,9.62863636 C74.0466108,9.62863636 71.0125199,9.77045455 68.0779744,9.90681818 C65.143429,10.0445455 62.1093381,10.185 59.2347926,10.185 C57.3938835,10.185 55.7738835,10.1290909 54.2847926,10.0118182 C54.5275199,9.50318182 54.2397926,9.13772727 53.9861562,8.81318182 C53.9111562,8.71909091 53.8416108,8.62909091 53.7870653,8.54045455 L53.773429,8.51727273 L53.7475199,8.51318182 C53.2770653,8.43136364 52.768429,8.39045455 52.2352472,8.39045455 C51.8711562,8.39045455 51.4975199,8.40818182 51.0938835,8.44636364 C49.9511562,8.55818182 48.8125199,8.79409091 47.7120653,9.02318182 C47.3247926,9.10363636 46.9375199,9.18409091 46.5502472,9.26045455 C46.228429,9.32181818 44.7147926,9.54954545 43.7602472,9.54954545 C43.1261562,9.54954545 43.0716108,9.44590909 43.0661562,9.42409091 C43.0607017,9.40090909 43.0702472,9.26045455 43.8147926,8.89909091 L43.9497926,8.835 C45.0325199,8.31409091 45.7920653,7.92136364 45.7007017,7.59818182 C45.6475199,7.41545455 45.4743381,7.19727273 44.9507017,7.19727273 C44.3575199,7.19727273 43.5679744,7.47545455 43.2788835,7.62545455 C41.4447926,8.57045455 39.3761562,9.37772727 37.3757017,10.1590909 C36.6038835,10.4604545 35.8061562,10.7727273 35.0479744,11.0822727 C34.2175199,11.4190909 32.1557017,12.2004545 30.9516108,12.2004545 C30.6011562,12.2004545 30.3543381,12.1336364 30.2207017,12 C30.0938835,11.8718182 30.1157017,11.7831818 30.1525199,11.6359091 C30.1620653,11.595 30.1729744,11.55 30.1811562,11.5036364 C30.2070653,11.3645455 30.2370653,11.2281818 30.2670653,11.0945455 C30.3407017,10.8231818 30.4347926,10.5804545 30.553429,10.3554545 C30.9693381,9.57818182 31.7247926,8.97545455 32.4093381,8.49 C32.5716108,8.37272727 32.7379744,8.25954545 32.9057017,8.14636364 C33.1061562,8.01 33.313429,7.86954545 33.5125199,7.72227273 C33.6788835,7.59954545 33.8343381,7.45363636 33.9857017,7.31181818 C34.1507017,7.15772727 34.3225199,6.99681818 34.5025199,6.87136364 C34.588429,6.81409091 34.7602472,6.73772727 34.9429744,6.65727273 C35.4379744,6.43636364 35.7625199,6.27954545 35.7638835,6.10636364 C35.7638835,6.03818182 35.7175199,5.98227273 35.6166108,5.93590909 C35.4843381,5.89909091 35.3438835,5.88 35.1979744,5.88 C34.4861562,5.88 33.7470653,6.32045455 33.0938835,6.70772727 C33.0066108,6.75954545 32.9220653,6.81 32.8388835,6.85909091 C32.1297926,7.26954545 31.4097926,7.73045455 30.6488835,8.21863636 C28.9497926,9.30681818 27.1920653,10.4331818 25.3252472,11.1463636 C24.9461562,11.2909091 23.7897926,11.7313636 22.903429,11.7313636 C22.8202472,11.7313636 22.7397926,11.7272727 22.6647926,11.7190909 C22.1125199,11.6645455 21.6843381,11.4340909 21.4579744,11.07 C21.2070653,10.665 21.2043381,10.1031818 21.4497926,9.44590909 C22.3497926,8.77636364 23.7188835,7.97318182 24.8207017,7.32681818 C25.1657017,7.12363636 25.4888835,6.93545455 25.768429,6.76772727 C26.1147926,6.55909091 26.4788835,6.32454545 26.8647926,6.07772727 C27.2397926,5.83636364 27.6270653,5.58818182 28.0197926,5.34954545 C30.1879744,4.02272727 32.5879744,2.445 33.9379744,0.804545455 L33.9638835,0.773181818 L33.943429,0.737727273 C33.6188835,0.193636364 33.0188835,0 32.5661562,0 C32.4257017,0 32.293429,0.0163636364 32.1720653,0.0490909091 C32.0861562,0.0709090909 32.0016108,0.0995454545 31.9211562,0.126818182 L31.8788835,0.141818182 C30.9720653,0.435 30.1525199,0.784090909 29.3725199,1.20954545 C28.4411562,1.72227273 27.6297926,2.23090909 26.8920653,2.76681818 C26.1461562,3.30818182 25.3743381,3.91363636 24.5343381,4.61590909 C24.1211562,4.96363636 23.7257017,5.34272727 23.3438835,5.70954545 C23.0561562,5.985 22.7602472,6.26863636 22.4575199,6.53727273 C21.8166108,7.10454545 21.4047926,7.71545455 20.9697926,8.36318182 C20.8075199,8.60318182 20.6397926,8.85136364 20.458429,9.10090909 C20.0370653,9.34227273 19.6402472,9.59454545 19.3020653,9.81272727 L19.048429,9.97636364 C18.5493381,10.2981818 18.0325199,10.6309091 17.5047926,10.92 C16.9116108,11.2431818 16.2693381,11.5677273 15.5970653,11.7504545 C14.9547926,11.9209091 14.3766108,11.9345455 13.9375199,11.7790909 C13.7561562,11.715 13.5257017,11.5786364 13.4547926,11.2922727 C13.3961562,11.0481818 13.4247926,10.575 13.5502472,10.3309091 C13.9988835,9.44590909 14.7393381,8.88545455 15.5247926,8.29090909 C15.6079744,8.22818182 15.6897926,8.16545455 15.7729744,8.10272727 C17.7011562,6.62045455 19.6566108,5.34954545 21.658429,4.07045455 C21.9066108,3.90818182 22.1697926,3.76227273 22.4261562,3.62181818 C22.618429,3.51545455 22.8188835,3.405 23.0125199,3.28909091 C23.1038835,3.23318182 23.2020653,3.18272727 23.2975199,3.135 C23.4870653,3.03818182 23.683429,2.93727273 23.8538835,2.79 L23.8675199,2.77772727 C23.9616108,2.69454545 24.1388835,2.54045455 24.1211562,2.39863636 C24.103429,2.30590909 24.0420653,2.25681818 23.9438835,2.25681818 C23.8757017,2.25681818 23.8007017,2.28 23.7407017,2.29909091 C23.7243381,2.30454545 23.7079744,2.31 23.6929744,2.31409091 C23.4870653,2.37545455 23.2852472,2.44363636 23.1338835,2.49681818 C22.6879744,2.65636364 22.3552472,2.79136364 22.0511562,2.93590909 C20.9316108,3.47454545 19.8911562,4.13318182 18.6747926,4.95681818 L18.2125199,5.27181818 C17.2920653,5.90454545 16.3388835,6.55772727 15.3611562,7.13454545 C14.8252472,7.44954545 14.2770653,7.78227273 13.7479744,8.10545455 C12.8520653,8.65227273 11.9247926,9.21818182 10.9893381,9.72954545 C10.6988835,9.88772727 10.4138835,10.0663636 10.138429,10.2381818 L10.0279744,10.3063636 C9.48933807,10.6418182 8.87706534,11.0222727 8.22797443,11.265 C7.87615625,11.3959091 7.55433807,11.475 7.24888352,11.505 C7.21479261,11.5077273 7.05524716,11.5131818 6.87661079,11.5131818 C6.49479261,11.5131818 6.3857017,11.4872727 6.3557017,11.475 C6.32297443,11.1777273 6.51661079,10.7304545 6.57661079,10.5981818 C7.28024716,9.08454545 10.1397926,7.18090909 12.2288835,5.79 C12.8411562,5.38227273 13.3702472,5.03045455 13.7657017,4.74136364 C13.9757017,4.58590909 14.1993381,4.44 14.4147926,4.29818182 C14.8375199,4.02136364 15.2738835,3.735 15.6420653,3.36954545 C15.8138835,3.20181818 16.213429,2.80772727 16.0552472,2.49681818 C15.9952472,2.37681818 15.8752472,2.31681818 15.6979744,2.31681818 C15.5997926,2.31681818 15.4975199,2.33454545 15.4157017,2.34954545 C15.3925199,2.35363636 15.3693381,2.35772727 15.3475199,2.36045455 C14.7911562,2.45181818 14.3261562,2.85136364 13.9157017,3.20318182 L13.8393381,3.26863636 C10.2788835,5.77636364 7.36751989,8.23772727 6.05024716,9.855 C5.84297443,10.0077273 5.7557017,10.0895455 5.67115625,10.1672727 C5.58115625,10.2518182 5.49661079,10.3309091 5.2607017,10.4945455 C5.07933807,10.62 4.94297443,10.7195455 4.82979261,10.8 C4.43024716,11.0877273 4.34706534,11.1477273 3.61751989,11.4627273 C3.51115625,11.5077273 3.4007017,11.5581818 3.28615625,11.61 C2.8607017,11.805 2.37797443,12.0259091 1.94979261,12.0259091 C1.57751989,12.0259091 1.29115625,11.8581818 1.07297443,11.5145455 C0.89706534,11.2390909 0.918883522,10.9827273 0.944792613,10.6595455 C1.0007017,9.96409091 1.18751989,9.47454545 1.61297443,8.90863636 C1.83933807,8.60454545 2.09706534,8.31409091 2.34388352,8.03454545 L2.35888352,8.01954545 C3.17433807,7.09909091 4.55842898,5.87318182 6.15388352,4.65409091 C6.8807017,4.09772727 7.58297443,3.61090909 8.14751989,3.21954545 C9.07479261,2.57727273 9.68706534,2.15181818 9.8057017,1.86954545 C9.87933807,1.69227273 9.88479261,1.55318182 9.8207017,1.45636364 C9.71842898,1.30227273 9.45797443,1.275 9.06115625,1.37454545 C8.10933807,1.62 6.44842898,2.56772727 5.11751989,3.90272727 C5.05342898,3.95590909 -1.29702557,9.31636364 0.239792613,11.9154545 C0.592974431,12.5154545 1.11933807,12.8209091 1.80661079,12.8209091 C2.41751989,12.8209091 3.14297443,12.585 4.02524716,12.1022727 C4.38388352,11.9059091 4.42342898,11.8772727 4.5557017,11.7831818 C4.62251989,11.7354545 4.71524716,11.67 4.88842898,11.5540909 C5.01524716,11.4681818 5.14342898,11.3836364 5.26888352,11.2977273 L5.51706534,11.1327273 C5.57706534,12.1990909 6.32706534,12.4295455 6.95979261,12.4295455 C7.65797443,12.4295455 8.39297443,12.1581818 8.76933807,11.9959091 C9.55615625,11.6522727 10.4452472,11.0236364 11.3057017,10.4154545 C12.0993381,9.855 12.8547926,9.32045455 13.4029744,9.11181818 C12.8861562,9.675 12.6093381,10.6295455 12.7497926,11.4436364 C12.8520653,12.0313636 13.1643381,12.4486364 13.6293381,12.6177273 C13.8925199,12.7131818 14.1788835,12.7622727 14.4802472,12.7622727 C15.7770653,12.7622727 17.218429,11.8718182 18.3761562,11.1559091 C19.1602472,10.6704545 19.843429,10.2490909 20.2961562,10.2122727 C20.2579744,10.9854545 20.4475199,11.6277273 20.8497926,12.0722727 C21.2179744,12.48 21.7470653,12.7077273 22.3797926,12.7309091 C22.4288835,12.7322727 22.4779744,12.7336364 22.5270653,12.7336364 C24.2916108,12.7336364 26.2047926,11.6059091 27.8943381,10.6131818 C28.7970653,10.0813636 29.6547926,9.57681818 30.3720653,9.32045455 C29.5961562,10.1168182 29.278429,11.1395455 29.5825199,11.9304545 C29.9002472,12.7609091 30.8288835,13.1154545 32.1093381,12.8618182 C33.9216108,12.51 36.1566108,11.49 38.1297926,10.59 C39.553429,9.93954545 40.8993381,9.32590909 41.8579744,9.06954545 C41.848429,9.78 41.8675199,10.4331818 42.8588835,10.4713636 C43.1302472,10.4795455 43.3893381,10.4877273 43.6607017,10.4768182 C45.0843381,10.41 46.4807017,10.0622727 47.8307017,9.72681818 C48.313429,9.60681818 48.8111562,9.48272727 49.303429,9.37363636 C49.7643381,9.27136364 50.9547926,9.03409091 52.048429,9.03409091 C52.6116108,9.03409091 53.0520653,9.09818182 53.3602472,9.22363636 C53.6275199,9.33409091 53.6766108,9.67363636 53.6288835,9.89727273 C53.3179744,9.87272727 52.9893381,9.825 52.6688835,9.77727273 C52.2025199,9.70909091 51.7211562,9.63954545 51.2807017,9.63954545 C50.6697926,9.63954545 49.8161562,9.75681818 49.4411562,10.7795455 C49.2038835,11.4327273 49.2543381,12.09 49.5897926,12.7377273 C50.1420653,13.7986364 51.4116108,14.6331818 52.3266108,14.88 L52.3893381,14.8963636 L52.3988835,14.8322727 C52.5966108,13.5709091 53.1911562,11.8568182 54.0747926,10.8559091 C60.0925199,10.9540909 66.6216108,10.9990909 74.6179744,10.9990909 C78.3147926,10.9990909 81.9229744,10.9895455 84.9679744,10.98 C85.003429,11.0181818 85.0266108,11.0727273 85.0525199,11.1286364 C85.1070653,11.2513636 85.1752472,11.4040909 85.393429,11.4040909 C85.4561562,11.4040909 85.528429,11.3904545 85.6116108,11.3645455 L85.6375199,11.3563636 L85.648429,11.3304545 C85.7547926,11.0727273 85.7629744,10.8490909 85.6688835,10.665" id="Fill-14"></path>
                    </g>
                </g>
            </g>
        </g>
    </g>
</svg>