<?xml version="1.0" encoding="UTF-8"?>
<svg width="16px" height="10px" viewBox="0 0 16 10" version="1.1" xmlns="http://www.w3.org/2000/svg" xmlns:xlink="http://www.w3.org/1999/xlink">
    <!-- Generator: Sketch 42 (36781) - http://www.bohemiancoding.com/sketch -->
    <title>vk</title>
    <desc>Created with Sketch.</desc>
    <defs></defs>
    <g id="Symbols" stroke="none" stroke-width="1" fill="none" fill-rule="evenodd" fill-opacity="0.3">
        <g id="menu-mobile" transform="translate(-91.000000, -490.000000)" fill="#FFFFFF">
            <g id="Group-2" transform="translate(25.000000, 139.000000)">
                <g id="Social-nets-" transform="translate(1.000000, 349.000000)">
                    <g id="vk" transform="translate(65.000000, 2.000000)">
                        <path d="M13.3700542,5.2080496 C13.3700542,5.2080496 15.3579215,2.28723421 15.5555391,1.32750966 C15.6211602,0.984554473 15.4763412,0.792845272 15.1342817,0.792845272 L13.4096531,0.792845272 C13.014795,0.792845272 12.869976,0.971197685 12.7511792,1.23165506 C12.7511792,1.23165506 11.8192839,3.30077876 10.6848683,4.60463703 C10.3205579,5.02616157 10.1357628,5.15305106 9.93475103,5.15305106 C9.77220677,5.15305106 9.69753446,5.01241193 9.69753446,4.6321363 L9.69753446,1.30001039 C9.69753446,0.833701332 9.64473586,0.696990672 9.27665419,0.696990672 L6.51189324,0.696990672 C6.3014531,0.696990672 6.16983374,0.82427301 6.16983374,0.998304109 C6.16983374,1.4371139 6.81473092,1.53650412 6.81473092,2.72643685 L6.81473092,5.18055033 C6.81473092,5.67435866 6.78833162,5.86606786 6.56469184,5.86606786 C5.97221612,5.86606786 4.56362491,3.74115993 3.77390871,1.32750966 C3.61589005,0.833701332 3.44504886,0.696990672 2.99739217,0.696990672 L1.27276362,0.696990672 C1.02272454,0.696990672 0.838306573,0.874950237 0.838306573,1.13540762 C0.838306573,1.61507346 1.37836082,3.83701453 3.49747033,6.81243562 C4.91926119,8.81438252 6.78833162,9.89746094 8.47336121,9.89746094 C9.49991684,9.89746094 9.74995593,9.71910853 9.74995593,9.2665491 L9.74995593,7.73091126 C9.74995593,7.34670716 9.89477494,7.18249723 10.1055922,7.18249723 C10.3428088,7.18249723 10.760672,7.26185227 11.7378232,8.26557565 C12.8963753,9.41779509 12.9751961,9.89746094 13.6072708,9.89746094 L15.5423394,9.89746094 C15.7395799,9.89746094 15.9236208,9.80121349 15.9236208,9.45865115 C15.9236208,9.00609172 15.3579215,8.19722032 14.4890074,7.23749577 C14.1333711,6.74368744 13.5544722,6.20902305 13.3700542,5.96231531 C13.1068155,5.67435866 13.1860134,5.50975588 13.3700542,5.2080496" id="Fill-3"></path>
                    </g>
                </g>
            </g>
        </g>
    </g>
</svg>